<svg xmlns="http://www.w3.org/2000/svg" class="graphdiagram" viewBox="NaN NaN NaN NaN"><g class="layer relationships"><g class="related-pair"><g class="relationship" transform="translate(480.32,209.28) rotate(0)"><path class="relationship" d="M 122.12065592129917 4 L 649.8018492950649 4 L 649.8018492950649 16 L 681.8018492950649 0 L 649.8018492950649 -16 L 649.8018492950649 -4 L 122.12065592129917 -4 Z" fill="rgb(0, 0, 0)" stroke="rgb(51, 51, 51)" stroke-width="0px"/><text class="type" text-anchor="middle" baseline-shift="30%" alignment-baseline="alphabetic" x="385.961252608182" y="0" font-size="50px" font-family="&quot;Gill Sans&quot;,&quot;Gill Sans MT&quot;,Calibri,sans-serif">:RECEIVED</text></g></g><g class="related-pair"><g class="relationship" transform="translate(1247.6000000000001,209.28) rotate(62.82917880007631)"><path class="relationship" d="M 85.478150704935 4 L 349.3123798241447 4 L 349.3123798241447 16 L 381.3123798241447 0 L 349.3123798241447 -16 L 349.3123798241447 -4 L 85.478150704935 -4 Z" fill="rgb(0, 0, 0)" stroke="rgb(51, 51, 51)" stroke-width="0px"/><text class="type" text-anchor="middle" baseline-shift="30%" alignment-baseline="alphabetic" x="217.3952652645399" y="0" font-size="50px" font-family="&quot;Gill Sans&quot;,&quot;Gill Sans MT&quot;,Calibri,sans-serif">:FROM</text></g></g><g class="related-pair"><g class="relationship" transform="translate(1247.6000000000001,209.28) rotate(118.7726825953501)"><path class="relationship" d="M 85.478150704935 4 L 364.0778355654602 4 L 364.0778355654602 16 L 396.0778355654602 0 L 364.0778355654602 -16 L 364.0778355654602 -4 L 85.478150704935 -4 Z" fill="rgb(0, 0, 0)" stroke="rgb(51, 51, 51)" stroke-width="0px"/><text class="type" text-anchor="middle" baseline-shift="30%" alignment-baseline="alphabetic" transform="rotate(180)" x="-224.77799313519762" y="0" font-size="50px" font-family="&quot;Gill Sans&quot;,&quot;Gill Sans MT&quot;,Calibri,sans-serif">:OF_VALUE</text></g></g></g><g class="layer nodes"><circle class="node node-id-0" r="107.12065592129917" fill="rgb(255, 255, 255)" stroke="rgb(0, 0, 0)" stroke-width="8px" cx="480.32" cy="209.28"/><g class="caption"><text class="caption node" text-anchor="middle" alignment-baseline="central" x="480.32" y="209.28" fill="rgb(51, 51, 51)" font-size="50px" font-family="&quot;Gill Sans&quot;,&quot;Gill Sans MT&quot;,Calibri,sans-serif">Person</text></g><circle class="node node-id-1" r="70.478150704935" fill="rgb(255, 255, 255)" stroke="rgb(0, 0, 0)" stroke-width="8px" cx="1247.6000000000001" cy="209.28"/><g class="caption"><text class="caption node" text-anchor="middle" alignment-baseline="central" x="1247.6000000000001" y="209.28" fill="rgb(51, 51, 51)" font-size="50px" font-family="&quot;Gill Sans&quot;,&quot;Gill Sans MT&quot;,Calibri,sans-serif">Gift</text></g><circle class="node node-id-2" r="90.98090024443984" fill="rgb(255, 255, 255)" stroke="rgb(0, 0, 0)" stroke-width="8px" cx="1470.1200000000001" cy="642.8000000000001"/><g class="caption"><text class="caption node" text-anchor="middle" alignment-baseline="central" x="1470.1200000000001" y="642.8000000000001" fill="rgb(51, 51, 51)" font-size="50px" font-family="&quot;Gill Sans&quot;,&quot;Gill Sans MT&quot;,Calibri,sans-serif">Giver</text></g><circle class="node node-id-3" r="121.1077861869505" fill="rgb(255, 255, 255)" stroke="rgb(0, 0, 0)" stroke-width="8px" cx="991.44" cy="675.76"/><g class="caption"><text class="caption node" text-anchor="middle" alignment-baseline="central" x="991.44" y="675.76" fill="rgb(51, 51, 51)" font-size="50px" font-family="&quot;Gill Sans&quot;,&quot;Gill Sans MT&quot;,Calibri,sans-serif">Amount</text></g></g><g class="layer properties"><g class="speech-bubble node-speech-bubble" transform="translate(373.19934407870085,209.28) "><path class="speech-bubble-outline" transform="scale(-1,1) " d="M 0 0 L 20 -10 L 20 -25 A 10 10 0 0 1 30 -35 L 351 -35 A 10 10 0 0 1 361 -25 L 361 25 A 10 10 0 0 1 351 35 L 30 35 A 10 10 0 0 1 20 25 L 20 10 Z" fill="rgb(255, 255, 255)" stroke="rgb(0, 0, 0)" stroke-width="3px"/><text class="speech-bubble-content property-key" x="-175" y="0" alignment-baseline="central" text-anchor="end" font-size="50px" font-family="&quot;Gill Sans&quot;,&quot;Gill Sans MT&quot;,Calibri,sans-serif" xml:space="preserve">name: </text><text class="speech-bubble-content property-value" x="-175" y="0" alignment-baseline="central" font-size="50px" font-family="&quot;Gill Sans&quot;,&quot;Gill Sans MT&quot;,Calibri,sans-serif">string</text></g><g class="speech-bubble node-speech-bubble" transform="translate(1297.4355782889472,159.444421711053) "><path class="speech-bubble-outline" transform="scale(1,-1) " d="M 0 0 L 30 20 L 351 20 A 10 10 0 0 1 361 30 L 361 80 A 10 10 0 0 1 351 90 L 30 90 A 10 10 0 0 1 20 80 L 20 30 Z" fill="rgb(255, 255, 255)" stroke="rgb(0, 0, 0)" stroke-width="3px"/><text class="speech-bubble-content property-key" x="206" y="-55" alignment-baseline="central" text-anchor="end" font-size="50px" font-family="&quot;Gill Sans&quot;,&quot;Gill Sans MT&quot;,Calibri,sans-serif" xml:space="preserve">name: </text><text class="speech-bubble-content property-value" x="206" y="-55" alignment-baseline="central" font-size="50px" font-family="&quot;Gill Sans&quot;,&quot;Gill Sans MT&quot;,Calibri,sans-serif">string</text></g><g class="speech-bubble relationship-speech-bubble" transform="translate(866.2812526081821,209.28) "><path class="speech-bubble-outline" transform="scale(1,1) " d="M 0 0 L -10 20 L -175 20 A 10 10 0 0 0 -185 30 L -185 80 A 10 10 0 0 0 -175 90 L 175 90 A 10 10 0 0 0 185 80 L 185 30 A 10 10 0 0 0 175 20 L 10 20 Z" fill="rgb(255, 255, 255)" stroke="rgb(0, 0, 0)" stroke-width="3px"/><text class="speech-bubble-content property-key" x="-6" y="55" alignment-baseline="central" text-anchor="end" font-size="50px" font-family="&quot;Gill Sans&quot;,&quot;Gill Sans MT&quot;,Calibri,sans-serif" xml:space="preserve">when: </text><text class="speech-bubble-content property-value" x="-6" y="55" alignment-baseline="central" font-size="50px" font-family="&quot;Gill Sans&quot;,&quot;Gill Sans MT&quot;,Calibri,sans-serif">integer</text></g><g class="speech-bubble node-speech-bubble" transform="translate(1534.4532115213003,707.1332115213003) "><path class="speech-bubble-outline" transform="scale(1,1) " d="M 0 0 L 30 20 L 351 20 A 10 10 0 0 1 361 30 L 361 80 A 10 10 0 0 1 351 90 L 30 90 A 10 10 0 0 1 20 80 L 20 30 Z" fill="rgb(255, 255, 255)" stroke="rgb(0, 0, 0)" stroke-width="3px"/><text class="speech-bubble-content property-key" x="206" y="55" alignment-baseline="central" text-anchor="end" font-size="50px" font-family="&quot;Gill Sans&quot;,&quot;Gill Sans MT&quot;,Calibri,sans-serif" xml:space="preserve">name: </text><text class="speech-bubble-content property-value" x="206" y="55" alignment-baseline="central" font-size="50px" font-family="&quot;Gill Sans&quot;,&quot;Gill Sans MT&quot;,Calibri,sans-serif">string</text></g><g class="speech-bubble node-speech-bubble" transform="translate(905.8038631327169,761.3961368672832) "><path class="speech-bubble-outline" transform="scale(-1,1) " d="M 0 0 L 30 20 L 346 20 A 10 10 0 0 1 356 30 L 356 80 A 10 10 0 0 1 346 90 L 30 90 A 10 10 0 0 1 20 80 L 20 30 Z" fill="rgb(255, 255, 255)" stroke="rgb(0, 0, 0)" stroke-width="3px"/><text class="speech-bubble-content property-key" x="-175" y="55" alignment-baseline="central" text-anchor="end" font-size="50px" font-family="&quot;Gill Sans&quot;,&quot;Gill Sans MT&quot;,Calibri,sans-serif" xml:space="preserve">value: </text><text class="speech-bubble-content property-value" x="-175" y="55" alignment-baseline="central" font-size="50px" font-family="&quot;Gill Sans&quot;,&quot;Gill Sans MT&quot;,Calibri,sans-serif">string</text></g></g><g class="layer overlay"><circle class="node overlay" r="111.12065592129917" stroke="none" fill="rgba(255, 255, 255, 0)" cx="480.32" cy="209.28"/><circle class="node ring" r="116.12065592129917" fill="none" stroke="rgba(255, 255, 255, 0)" stroke-width="10px" cx="480.32" cy="209.28"/><circle class="node overlay" r="74.478150704935" stroke="none" fill="rgba(255, 255, 255, 0)" cx="1247.6000000000001" cy="209.28"/><circle class="node ring" r="79.478150704935" fill="none" stroke="rgba(255, 255, 255, 0)" stroke-width="10px" cx="1247.6000000000001" cy="209.28"/><path class="relationship overlay" fill="rgba(255, 255, 255, 0)" stroke="rgba(255, 255, 255, 0)" stroke-width="10px" transform="translate(480.32,209.28) rotate(0)" d="M 122.12065592129917 4 L 649.8018492950649 4 L 649.8018492950649 16 L 681.8018492950649 0 L 649.8018492950649 -16 L 649.8018492950649 -4 L 122.12065592129917 -4 Z"/><circle class="node overlay" r="94.98090024443984" stroke="none" fill="rgba(255, 255, 255, 0)" cx="1470.1200000000001" cy="642.8000000000001"/><circle class="node ring" r="99.98090024443984" fill="none" stroke="rgba(255, 255, 255, 0)" stroke-width="10px" cx="1470.1200000000001" cy="642.8000000000001"/><path class="relationship overlay" fill="rgba(255, 255, 255, 0)" stroke="rgba(255, 255, 255, 0)" stroke-width="10px" transform="translate(1247.6000000000001,209.28) rotate(62.82917880007631)" d="M 85.478150704935 4 L 349.3123798241447 4 L 349.3123798241447 16 L 381.3123798241447 0 L 349.3123798241447 -16 L 349.3123798241447 -4 L 85.478150704935 -4 Z"/><circle class="node overlay" r="125.1077861869505" stroke="none" fill="rgba(255, 255, 255, 0)" cx="991.44" cy="675.76"/><circle class="node ring" r="130.1077861869505" fill="none" stroke="rgba(255, 255, 255, 0)" stroke-width="10px" cx="991.44" cy="675.76"/><path class="relationship overlay" fill="rgba(255, 255, 255, 0)" stroke="rgba(255, 255, 255, 0)" stroke-width="10px" transform="translate(1247.6000000000001,209.28) rotate(118.7726825953501)" d="M 85.478150704935 4 L 364.0778355654602 4 L 364.0778355654602 16 L 396.0778355654602 0 L 364.0778355654602 -16 L 364.0778355654602 -4 L 85.478150704935 -4 Z"/></g></svg>